<?xml version="1.0" standalone="no"?>
<!DOCTYPE svg PUBLIC "-//W3C//DTD SVG 20010904//EN"
 "http://www.w3.org/TR/2001/REC-SVG-20010904/DTD/svg10.dtd">
<svg version="1.0" xmlns="http://www.w3.org/2000/svg"
 width="600.000000pt" height="600.000000pt" viewBox="0 0 600.000000 600.000000"
 preserveAspectRatio="xMidYMid meet">
<metadata>
Created by potrace 1.14, written by Peter Selinger 2001-2017
</metadata>
<g transform="translate(0.000000,600.000000) scale(0.100000,-0.100000)"
fill="#000000" stroke="none">
<path d="M2798 5996 c-1 -2 -37 -6 -78 -10 -41 -3 -86 -8 -100 -10 -14 -3 -43
-7 -65 -10 -79 -11 -111 -18 -220 -42 -60 -14 -119 -27 -129 -29 -81 -18 -348
-118 -481 -180 -111 -52 -298 -155 -303 -167 -2 -4 -10 -8 -18 -8 -8 0 -14 -4
-14 -10 0 -5 -5 -10 -10 -10 -10 0 -109 -66 -185 -124 -168 -127 -417 -366
-525 -506 -19 -25 -39 -50 -45 -56 -5 -6 -16 -20 -23 -30 -7 -11 -35 -50 -63
-89 -59 -82 -146 -225 -184 -300 -8 -16 -19 -37 -24 -45 -5 -8 -15 -28 -22
-45 -8 -16 -18 -33 -24 -37 -5 -4 -7 -8 -3 -8 4 0 -8 -31 -26 -70 -18 -38 -37
-79 -41 -92 -4 -13 -8 -25 -10 -28 -1 -3 -5 -12 -8 -20 -30 -69 -112 -349
-132 -450 -50 -259 -60 -354 -59 -620 0 -189 9 -374 19 -391 2 -3 6 -25 9 -50
8 -63 24 -153 41 -227 3 -12 7 -31 10 -43 7 -33 53 -192 63 -219 3 -8 6 -17 6
-20 3 -14 65 -176 86 -225 41 -96 122 -255 171 -337 32 -55 59 -104 59 -109 0
-5 4 -9 8 -9 5 0 15 -12 23 -27 8 -16 16 -30 19 -33 3 -3 23 -30 44 -60 22
-30 43 -56 48 -58 4 -2 8 -10 8 -17 0 -8 6 -18 13 -22 6 -4 31 -33 55 -64 71
-95 307 -328 412 -409 25 -19 49 -41 53 -48 4 -6 14 -12 22 -12 7 0 15 -4 17
-8 2 -5 28 -26 58 -48 30 -21 57 -41 60 -44 3 -3 17 -11 33 -19 15 -8 27 -18
27 -23 0 -4 5 -8 11 -8 6 0 23 -9 39 -20 69 -49 333 -182 465 -234 39 -16 78
-32 87 -37 10 -5 26 -9 36 -9 10 0 22 -4 28 -9 9 -8 241 -76 294 -86 14 -3 36
-7 50 -10 66 -13 95 -19 100 -20 3 -1 32 -5 65 -9 33 -5 68 -10 79 -12 142
-26 642 -25 760 1 12 3 39 7 61 9 22 3 51 7 65 10 14 3 41 7 60 10 19 3 73 15
120 27 47 11 94 23 105 25 11 2 54 15 95 29 41 15 82 28 90 30 43 9 271 107
386 165 197 100 444 266 598 402 141 123 416 419 416 447 0 6 3 11 8 11 4 0
18 17 32 38 14 20 27 39 31 42 13 12 69 100 69 109 0 6 5 11 10 11 6 0 10 6
10 14 0 8 4 16 8 18 7 3 70 110 99 168 7 14 17 32 22 40 15 25 62 119 61 122
-1 2 10 28 23 58 22 48 36 84 42 100 1 3 5 12 8 20 46 113 136 437 151 545 3
22 8 51 10 65 6 32 14 97 23 180 15 134 8 552 -12 660 -2 14 -6 43 -9 65 -7
55 -22 140 -36 200 -6 28 -13 57 -15 65 -14 69 -90 304 -132 410 -35 89 -117
261 -165 345 -55 96 -121 199 -130 203 -5 2 -8 8 -8 14 0 9 -111 162 -156 215
-11 12 -30 37 -44 54 -52 68 -290 298 -395 382 -106 85 -302 222 -318 222 -4
0 -11 5 -15 10 -4 6 -25 19 -47 30 -22 11 -42 23 -45 26 -6 7 -299 150 -314
154 -6 1 -23 7 -37 13 -54 22 -205 74 -228 78 -14 3 -28 7 -33 10 -29 18 -291
74 -438 94 -41 6 -88 13 -105 16 -32 6 -501 15 -507 10z"/>
</g>
</svg>
